<?xml version="1.0" encoding="utf-8"?>
<!-- Generator: Adobe Illustrator 23.0.1, SVG Export Plug-In . SVG Version: 6.00 Build 0)  -->
<svg version="1.1" xmlns="http://www.w3.org/2000/svg" xmlns:xlink="http://www.w3.org/1999/xlink" x="0px" y="0px"
	 viewBox="0 0 458.6 400" style="enable-background:new 0 0 458.6 400;" xml:space="preserve">
<style type="text/css">
	.st0{fill:#FFE100;}
	.st1{fill:url(#SVGID_1_);}
	.st2{fill:url(#SVGID_2_);}
	.st3{fill:url(#SVGID_3_);}
	.st4{fill:url(#SVGID_4_);}
	.st5{fill:url(#SVGID_5_);}
	.st6{fill:url(#SVGID_6_);}
	.st7{fill:url(#SVGID_7_);}
	.st8{fill:url(#SVGID_8_);}
	.st9{fill:url(#SVGID_9_);}
	.st10{fill:url(#SVGID_10_);}
	.st11{fill:#150301;}
</style>
<g id="レイヤー_1">
	<title>Nikon</title>
	<g>
		<rect y="0" class="st0" width="400" height="400"/>
		
			<linearGradient id="SVGID_1_" gradientUnits="userSpaceOnUse" x1="386.0227" y1="981.75" x2="393.0877" y2="983.8387" gradientTransform="matrix(77.3572 0 0 -77.3572 -30094.0078 76386.9766)">
			<stop  offset="0" style="stop-color:#FFE419"/>
			<stop  offset="0.34" style="stop-color:#FFFFFF"/>
			<stop  offset="0.66" style="stop-color:#FFFFFF"/>
			<stop  offset="1" style="stop-color:#FFE419"/>
		</linearGradient>
		<path class="st1" d="M303.1,283.2c-88.9,15.7-178,36.6-266.8,62.8c-12.1,3.6-24.2,7.3-36.3,11v31.4c15-4.1,30-8.4,45-12.8
			C133.8,349.3,219.9,318.4,303.1,283.2z"/>
		
			<linearGradient id="SVGID_2_" gradientUnits="userSpaceOnUse" x1="386.6293" y1="982.3976" x2="393.4125" y2="984.6029" gradientTransform="matrix(77.3572 0 0 -77.3572 -30094.0078 76386.9766)">
			<stop  offset="0" style="stop-color:#FFE419"/>
			<stop  offset="0.355" style="stop-color:#FFFFFF"/>
			<stop  offset="0.645" style="stop-color:#FFFFFF"/>
			<stop  offset="1" style="stop-color:#FFE419"/>
		</linearGradient>
		<path class="st2" d="M328.3,224.4c-85.4,18.2-170.8,41-255.9,68.7C48,301,23.9,309.2,0,317.8v26.4c27-7.8,54-16.1,80.9-24.8
			C166.1,291.7,248.6,259.9,328.3,224.4z"/>
		
			<linearGradient id="SVGID_3_" gradientUnits="userSpaceOnUse" x1="387.1997" y1="983.0073" x2="393.7233" y2="985.3328" gradientTransform="matrix(77.3572 0 0 -77.3572 -30094.0078 76386.9766)">
			<stop  offset="0" style="stop-color:#FFE419"/>
			<stop  offset="0.37" style="stop-color:#FFFFFF"/>
			<stop  offset="0.63" style="stop-color:#FFFFFF"/>
			<stop  offset="1" style="stop-color:#FFE419"/>
		</linearGradient>
		<path class="st3" d="M352.5,168.2c-82.1,20.3-164.2,44.9-246,74.1C70.5,255.2,35,268.7,0,283v21.5c38.4-11.7,76.8-24.4,115.1-38
			C196.9,237.3,276.1,204.5,352.5,168.2z"/>
		
			<linearGradient id="SVGID_4_" gradientUnits="userSpaceOnUse" x1="387.7401" y1="983.5847" x2="394.0193" y2="986.0329" gradientTransform="matrix(77.3572 0 0 -77.3572 -30094.0078 76386.9766)">
			<stop  offset="0" style="stop-color:#FFE419"/>
			<stop  offset="0.385" style="stop-color:#FFFFFF"/>
			<stop  offset="0.615" style="stop-color:#FFFFFF"/>
			<stop  offset="1" style="stop-color:#FFE419"/>
		</linearGradient>
		<path class="st4" d="M375.6,114.4c-79,22.4-158,48.9-236.6,79.5C91.7,212.3,45.4,232,0,252.7v15.8c49.3-15.9,98.5-33.4,147.6-52.5
			C226.2,185.3,302.3,151.4,375.6,114.4z"/>
		
			<linearGradient id="SVGID_5_" gradientUnits="userSpaceOnUse" x1="388.2584" y1="984.1357" x2="394.3073" y2="986.7095" gradientTransform="matrix(77.3572 0 0 -77.3572 -30094.0078 76386.9766)">
			<stop  offset="0" style="stop-color:#FFE419"/>
			<stop  offset="0.4" style="stop-color:#FFFFFF"/>
			<stop  offset="0.6" style="stop-color:#FFFFFF"/>
			<stop  offset="1" style="stop-color:#FFE419"/>
		</linearGradient>
		<path class="st5" d="M397.9,62.4c-76.1,24.6-152.2,52.9-227.8,85.1C111.9,172.2,55.2,198.8,0,226.9v9.3
			c59.7-20.5,119.3-43.4,178.6-68.7C254.2,135.4,327.4,100.2,397.9,62.4z"/>
		
			<linearGradient id="SVGID_6_" gradientUnits="userSpaceOnUse" x1="388.7542" y1="984.6624" x2="394.5872" y2="987.3663" gradientTransform="matrix(77.3572 0 0 -77.3572 -30094.0078 76386.9766)">
			<stop  offset="0" style="stop-color:#FFE626"/>
			<stop  offset="0.415" style="stop-color:#FFFFFF"/>
			<stop  offset="0.585" style="stop-color:#FFFFFF"/>
			<stop  offset="1" style="stop-color:#FFE419"/>
		</linearGradient>
		<path class="st6" d="M400,23.1v-3.9c-66.8,24.9-133.5,52.8-199.9,83.5C131.2,134.6,64.4,168.9,0,205.3v2.2
			c69.7-25.7,139.3-54.6,208.5-86.7C274.4,90.3,338.2,57.7,400,23.1z"/>
		
			<linearGradient id="SVGID_7_" gradientUnits="userSpaceOnUse" x1="389.2278" y1="985.1667" x2="394.8593" y2="988.0064" gradientTransform="matrix(77.3572 0 0 -77.3572 -30094.0078 76386.9766)">
			<stop  offset="0" style="stop-color:#FFE733"/>
			<stop  offset="0.43" style="stop-color:#FFFFFF"/>
			<stop  offset="0.57" style="stop-color:#FFFFFF"/>
			<stop  offset="1" style="stop-color:#FFE419"/>
		</linearGradient>
		<path class="st7" d="M25.5,172.2c70.8-29,141.5-61.2,211.8-96.6C285.3,51.4,332.1,26.2,377.8,0h-23.9
			c-41.7,18.7-83.3,38.4-124.8,59.3C158.9,94.8,90.9,132.5,25.5,172.2z"/>
		
			<linearGradient id="SVGID_8_" gradientUnits="userSpaceOnUse" x1="389.6892" y1="985.6554" x2="395.1269" y2="988.6349" gradientTransform="matrix(77.3572 0 0 -77.3572 -30094.0078 76386.9766)">
			<stop  offset="0" style="stop-color:#FFE940"/>
			<stop  offset="0.445" style="stop-color:#FFFFFF"/>
			<stop  offset="0.555" style="stop-color:#FFFFFF"/>
			<stop  offset="1" style="stop-color:#FFE419"/>
		</linearGradient>
		<path class="st8" d="M60.9,134.2c68.3-31.3,136.6-65.5,204.4-102.6c18.9-10.4,37.7-20.9,56.2-31.6H289
			c-10.6,5.6-21.1,11.3-31.7,17.1C189.5,54.3,124,93.4,60.9,134.2z"/>
		
			<linearGradient id="SVGID_9_" gradientUnits="userSpaceOnUse" x1="390.1448" y1="986.1373" x2="395.3842" y2="989.2545" gradientTransform="matrix(77.3572 0 0 -77.3572 -30094.0078 76386.9766)">
			<stop  offset="0" style="stop-color:#FFEA4C"/>
			<stop  offset="0.46" style="stop-color:#FFFFFF"/>
			<stop  offset="0.54" style="stop-color:#FFFFFF"/>
			<stop  offset="1" style="stop-color:#FFE419"/>
		</linearGradient>
		<path class="st9" d="M272.2,0h-27.9C193.4,31.2,144,63.4,96,96.4C154.9,66.4,213.6,34.3,272.2,0z"/>
		
			<linearGradient id="SVGID_10_" gradientUnits="userSpaceOnUse" x1="390.6051" y1="986.622" x2="395.6508" y2="989.8799" gradientTransform="matrix(77.3572 0 0 -77.3572 -30094.0078 76386.9766)">
			<stop  offset="0" style="stop-color:#FFEC59"/>
			<stop  offset="0.475" style="stop-color:#FFFFFF"/>
			<stop  offset="0.525" style="stop-color:#FFFFFF"/>
			<stop  offset="1" style="stop-color:#FFE419"/>
		</linearGradient>
		<path class="st10" d="M231,0h-17.6c-27.9,19.3-55.3,38.8-82.3,58.5C164.5,39.7,197.8,20.2,231,0z"/>
		<path class="st11" d="M145,385.4l21.6-97.3l26.6,0l-11.6,51.8l21.5-26h29.8l-26.7,32.4l11,39.1h-26.6l-11-37l-8.7,37L145,385.4
			L145,385.4z M48.9,336.5l18.8,48.9h25.5l22-97.3l-26.3,0l-11.1,49.5l-18.4-49.5H32.7L11,385.4h26.8
			C40.8,369.8,44.9,353.3,48.9,336.5z M132.2,385.4l15.9-71.5H122l-15.9,71.5H132.2z M123.4,298.3c0,2.2,0.5,10.2,14.8,10.2
			c11.9,0,16.5-7.6,16.5-13.3c0-3.8-3.1-10.5-14.8-10.5C129,284.7,123.4,291.9,123.4,298.3z M374.8,313c-11.2-3.3-25,2.2-31.9,11.7
			c0.7-2.9,1.4-6.3,2.2-10.3h-26.5l-15.5,71h26.4l8.8-40.3c1.6-7.4,7.6-10.6,12.9-9.2c2.3,0.6,5.4,2.3,4.4,8.5l-9,41h26.1l12-54.7
			C387.1,318.6,377.2,313.7,374.8,313z M286,379c11.5-9.4,17.1-25.2,16.9-40.1c-0.2-14.3-12.3-27.9-33.4-27.9
			c-40.2,0-46.1,31.4-47.3,37.1c-2.9,14.5,0.3,33.3,19.2,38.3C254,389.6,273.5,389.2,286,379z M256.5,337.5c1.9-5.2,7-6.4,9.4-6.4
			c5.8,0,7.3,3.4,6.8,6.6c-1.4,8.9-4.5,20.3-5.6,23.9c0,0,0,0.1,0,0.1c-1.3,3.9-5,6.2-9.4,6.2c-4.4,0-7.1-2.8-6.7-6.3
			C251.6,355.7,255.4,340.5,256.5,337.5z"/>
	</g>
</g>
<g id="BrandSymbol">
	<g>
		<g>
			<path d="M427.6,374h5.5c3.8,0,6.3,1.4,6.3,4.6c0,2.3-2.1,3.8-4.7,4.1v0.1c1.7,0.2,2.1,0.9,2.8,2.1l3.6,6.9h-2.3l-3.1-6
				c-1.2-2.3-2.1-2.4-4.1-2.4h-1.7v8.4h-2.1V374z M429.7,381.8h2.2c2.5,0,5.3-0.8,5.3-3.3c0-2.9-2.5-3.1-5.4-3.1h-2.2V381.8z"/>
		</g>
		<g>
			<path d="M416.5,383.3c0,9.2,7.5,16.7,16.7,16.7c9.2,0,16.7-7.5,16.7-16.7c0-9.2-7.5-16.7-16.7-16.7
				C424,366.6,416.5,374.1,416.5,383.3z M418.2,383.3c0-8.3,6.7-15,15-15c8.3,0,15,6.7,15,15c0,8.3-6.7,15-15,15
				C424.9,398.2,418.2,391.5,418.2,383.3z"/>
		</g>
	</g>
</g>
</svg>
